<svg width="166" height="39" viewBox="0 0 166 39" fill="none" xmlns="http://www.w3.org/2000/svg">
<path d="M24.6567 12.0208C24.6567 10.4139 24.9699 8.96883 25.5963 7.6854C26.2328 6.40197 27.1118 5.41161 28.2333 4.71432C29.3648 4.01702 30.653 3.66838 32.0977 3.66838C34.3305 3.66838 36.1339 4.44146 37.5079 5.98764C38.8921 7.53382 39.5841 9.59033 39.5841 12.1572V12.3542C39.5841 13.9509 39.276 15.386 38.6597 16.6593C38.0535 17.9225 37.1796 18.9078 36.0379 19.6152C34.9064 20.3226 33.6031 20.6763 32.128 20.6763C29.9053 20.6763 28.1019 19.9032 26.7178 18.357C25.3438 16.8109 24.6567 14.7645 24.6567 12.2178V12.0208ZM27.4755 12.3542C27.4755 14.1733 27.8948 15.6336 28.7334 16.7351C29.582 17.8366 30.7136 18.3874 32.128 18.3874C33.5526 18.3874 34.6841 17.8315 35.5227 16.7199C36.3612 15.5982 36.7805 14.0318 36.7805 12.0208C36.7805 10.2219 36.3511 8.76671 35.4924 7.65508C34.6437 6.53335 33.5121 5.97248 32.0977 5.97248C30.7136 5.97248 29.5972 6.52324 28.7485 7.62477C27.8998 8.72629 27.4755 10.3028 27.4755 12.3542Z" fill="#C4C0C0"/>
<path d="M46.3923 12.0208C46.3923 10.4139 46.7054 8.96883 47.3318 7.6854C47.9683 6.40197 48.8473 5.41161 49.9688 4.71432C51.1003 4.01702 52.3885 3.66838 53.8332 3.66838C56.066 3.66838 57.8694 4.44146 59.2435 5.98764C60.6276 7.53382 61.3197 9.59033 61.3197 12.1572V12.3542C61.3197 13.9509 61.0115 15.386 60.3952 16.6593C59.789 17.9225 58.9151 18.9078 57.7735 19.6152C56.6419 20.3226 55.3386 20.6763 53.8635 20.6763C51.6408 20.6763 49.8374 19.9032 48.4533 18.357C47.0793 16.8109 46.3923 14.7645 46.3923 12.2178V12.0208ZM49.211 12.3542C49.211 14.1733 49.6303 15.6336 50.4689 16.7351C51.3175 17.8366 52.4491 18.3874 53.8635 18.3874C55.2881 18.3874 56.4196 17.8315 57.2582 16.7199C58.0968 15.5982 58.516 14.0318 58.516 12.0208C58.516 10.2219 58.0866 8.76671 57.2279 7.65508C56.3792 6.53335 55.2477 5.97248 53.8332 5.97248C52.4491 5.97248 51.3327 6.52324 50.484 7.62477C49.6354 8.72629 49.211 10.3028 49.211 12.3542Z" fill="#C4C0C0"/>
<path d="M72.6742 0V3.97155H75.7354V6.13923H72.6742V16.3106C72.6742 16.9675 72.8106 17.4627 73.0834 17.7962C73.3561 18.1196 73.8209 18.2813 74.4776 18.2813C74.8009 18.2813 75.2454 18.2206 75.8112 18.0993V20.3731C75.0737 20.5752 74.3564 20.6763 73.6592 20.6763C72.4065 20.6763 71.4618 20.2973 70.8253 19.5394C70.1888 18.7815 69.8706 17.7052 69.8706 16.3106V6.13923H66.8851V3.97155H69.8706V0H72.6742Z" fill="#C4C0C0"/>
<path d="M92.6063 16.0226C92.6063 15.2647 92.3183 14.6786 91.7425 14.2642C91.1767 13.8398 90.1815 13.476 88.757 13.1728C87.3425 12.8696 86.216 12.5058 85.3775 12.0814C84.549 11.6569 83.9327 11.1517 83.5286 10.5655C83.1346 9.9794 82.9376 9.28211 82.9376 8.47365C82.9376 7.12959 83.5033 5.99269 84.6349 5.06297C85.7766 4.13324 87.2314 3.66838 88.9995 3.66838C90.8584 3.66838 92.3638 4.1484 93.5156 5.10844C94.6774 6.06849 95.2584 7.29633 95.2584 8.79198H92.4396C92.4396 8.02394 92.1112 7.36202 91.4545 6.8062C90.8079 6.25039 89.9896 5.97248 88.9995 5.97248C87.979 5.97248 87.1809 6.19481 86.605 6.63946C86.0291 7.08411 85.7412 7.66519 85.7412 8.3827C85.7412 9.05978 86.0089 9.57012 86.5444 9.91371C87.0799 10.2573 88.0447 10.5857 89.439 10.899C90.8433 11.2123 91.9799 11.5862 92.8488 12.0208C93.7176 12.4553 94.3592 12.9808 94.7734 13.5972C95.1977 14.2036 95.4099 14.9464 95.4099 15.8256C95.4099 17.2909 94.8239 18.4682 93.652 19.3575C92.48 20.2367 90.9595 20.6763 89.0904 20.6763C87.777 20.6763 86.6151 20.4439 85.6048 19.979C84.5945 19.5141 83.8014 18.8674 83.2255 18.0387C82.6597 17.1999 82.3768 16.2955 82.3768 15.3253H85.1805C85.231 16.2652 85.6048 17.013 86.3019 17.5688C87.0091 18.1145 87.9386 18.3874 89.0904 18.3874C90.1512 18.3874 90.9999 18.1751 91.6364 17.7507C92.283 17.3162 92.6063 16.7401 92.6063 16.0226Z" fill="#C4C0C0"/>
<path d="M106.901 0V3.97155H109.962V6.13923H106.901V16.3106C106.901 16.9675 107.037 17.4627 107.31 17.7962C107.583 18.1196 108.048 18.2813 108.704 18.2813C109.028 18.2813 109.472 18.2206 110.038 18.0993V20.3731C109.3 20.5752 108.583 20.6763 107.886 20.6763C106.633 20.6763 105.688 20.2973 105.052 19.5394C104.415 18.7815 104.097 17.7052 104.097 16.3106V6.13923H101.112V3.97155H104.097V0H106.901Z" fill="#C4C0C0"/>
<path d="M125.211 6.48787C124.787 6.41713 124.327 6.38176 123.832 6.38176C121.994 6.38176 120.746 7.16496 120.089 8.73134V20.3731H117.285V3.97155H120.013L120.059 5.86637C120.978 4.40104 122.281 3.66838 123.969 3.66838C124.514 3.66838 124.928 3.73912 125.211 3.8806V6.48787Z" fill="#C4C0C0"/>
<path d="M141.355 20.3731C141.193 20.0498 141.062 19.4737 140.961 18.6451C139.657 19.9992 138.102 20.6763 136.293 20.6763C134.677 20.6763 133.348 20.2215 132.307 19.312C131.277 18.3924 130.762 17.2303 130.762 15.8256C130.762 14.1177 131.408 12.7938 132.701 11.854C134.005 10.9041 135.833 10.4291 138.187 10.4291H140.915V9.14063C140.915 8.16037 140.622 7.38223 140.036 6.8062C139.45 6.22007 138.587 5.92701 137.445 5.92701C136.445 5.92701 135.606 6.17965 134.929 6.68493C134.252 7.19022 133.914 7.80162 133.914 8.51912H131.095C131.095 7.70056 131.383 6.91231 131.959 6.15438C132.545 5.38635 133.333 4.78001 134.323 4.33535C135.323 3.8907 136.419 3.66838 137.612 3.66838C139.501 3.66838 140.981 4.14335 142.052 5.09328C143.123 6.03312 143.679 7.3317 143.719 8.98904V16.538C143.719 18.0438 143.911 19.2413 144.295 20.1306V20.3731H141.355ZM136.702 18.2358C137.581 18.2358 138.415 18.0084 139.203 17.5536C139.991 17.0989 140.562 16.5077 140.915 15.7801V12.4149H138.718C135.283 12.4149 133.565 13.4204 133.565 15.4314C133.565 16.3106 133.858 16.9978 134.444 17.493C135.03 17.9882 135.783 18.2358 136.702 18.2358Z" fill="#C4C0C0"/>
<path d="M166 12.3542C166 14.8504 165.429 16.8614 164.288 18.3874C163.146 19.9133 161.6 20.6763 159.65 20.6763C157.66 20.6763 156.094 20.0447 154.952 18.7815V26.6791H152.149V3.97155H154.71L154.846 5.79058C155.988 4.37578 157.574 3.66838 159.605 3.66838C161.575 3.66838 163.131 4.41115 164.272 5.89669C165.424 7.38223 166 9.44885 166 12.0965V12.3542ZM163.196 12.0359C163.196 10.1866 162.802 8.72629 162.014 7.65508C161.226 6.58388 160.145 6.04827 158.771 6.04827C157.074 6.04827 155.801 6.80115 154.952 8.3069V16.1439C155.791 17.6395 157.074 18.3874 158.802 18.3874C160.145 18.3874 161.211 17.8568 161.999 16.7957C162.797 15.7245 163.196 14.1379 163.196 12.0359Z" fill="#C4C0C0"/>
<path d="M22.8382 23.3988V26.0546H25.075V26.5548H22.8382V33.5399C22.8382 34.2372 22.9503 34.7526 23.1746 35.0861C23.405 35.4196 23.7869 35.5863 24.3203 35.5863C24.587 35.5863 24.9113 35.559 25.2932 35.5044L25.3751 35.9683C25.175 36.0411 24.8325 36.0774 24.3476 36.0774C23.6323 36.0774 23.1201 35.8804 22.8109 35.4863C22.5017 35.0861 22.3441 34.4585 22.3381 33.6036V26.5548H20.5195V26.0546H22.3381V23.3988H22.8382Z" fill="#C4C0C0"/>
<path d="M28.1211 28.3466C28.4424 27.5826 28.9152 26.9793 29.5396 26.5366C30.164 26.094 30.855 25.8727 31.6128 25.8727C32.6675 25.8727 33.4495 26.1728 33.9587 26.7731C34.474 27.3673 34.7346 28.2677 34.7407 29.4744V35.8955H34.2497V29.4562C34.2436 28.4011 34.0284 27.622 33.6041 27.1187C33.1798 26.6094 32.5069 26.3547 31.5855 26.3547C30.7368 26.3547 30.0003 26.6579 29.3759 27.2642C28.7576 27.8645 28.3393 28.6406 28.1211 29.5926V35.8955H27.6301V21.9254H28.1211V28.3466Z" fill="#C4C0C0"/>
<path d="M41.3694 36.0774C40.5753 36.0774 39.8448 35.8652 39.178 35.4408C38.5173 35.0103 37.999 34.4221 37.6231 33.6763C37.2473 32.9305 37.0594 32.1029 37.0594 31.1933V30.7841C37.0594 29.8745 37.2412 29.0408 37.6049 28.2829C37.9687 27.525 38.4688 26.9338 39.1053 26.5093C39.7418 26.0849 40.4358 25.8727 41.1875 25.8727C42.2847 25.8727 43.1819 26.2638 43.879 27.046C44.5761 27.8281 44.9247 28.8559 44.9247 30.1292V30.6476H37.5504V31.1842C37.5504 31.9846 37.7171 32.7274 38.0505 33.4126C38.39 34.0917 38.8537 34.6252 39.4417 35.0133C40.0358 35.4014 40.6783 35.5954 41.3694 35.5954C42.0301 35.5954 42.5908 35.4863 43.0515 35.268C43.5183 35.0436 43.9305 34.701 44.2882 34.2402L44.6337 34.4858C43.9002 35.5469 42.8121 36.0774 41.3694 36.0774ZM41.1875 26.3638C40.2297 26.3638 39.4174 26.7216 38.7506 27.437C38.0838 28.1465 37.6928 29.0529 37.5777 30.1565H44.4337V30.0383C44.4337 29.3713 44.2912 28.7528 44.0063 28.1828C43.7274 27.6068 43.3395 27.1612 42.8424 26.8459C42.3514 26.5245 41.7998 26.3638 41.1875 26.3638Z" fill="#C4C0C0"/>
<path d="M54.2539 35.8955H53.7629V29.2834C53.7568 28.295 53.5386 27.5613 53.1082 27.0823C52.6839 26.5973 52.005 26.3547 51.0714 26.3547C49.9924 26.3547 49.1104 26.8307 48.4254 27.7827C48.0193 28.3526 47.7495 28.9832 47.6161 29.6745V35.8955H47.116V26.0546H47.6161V28.3829C47.9496 27.5826 48.4254 26.9641 49.0437 26.5275C49.662 26.091 50.347 25.8727 51.0987 25.8727C51.9231 25.8727 52.596 26.0546 53.1173 26.4184C53.6447 26.7822 53.9902 27.3764 54.1539 28.201C54.4449 27.4916 54.9177 26.9277 55.5724 26.5093C56.2271 26.0849 56.9606 25.8727 57.7728 25.8727C58.8337 25.8727 59.6217 26.1728 60.137 26.7731C60.6583 27.3734 60.922 28.2738 60.9281 29.4744V35.8955H60.437V29.5107C60.437 28.4314 60.2188 27.6341 59.7824 27.1187C59.352 26.5973 58.673 26.3426 57.7456 26.3547C56.5514 26.3729 55.6057 26.8489 54.9086 27.7827C54.5085 28.3223 54.2903 28.8438 54.2539 29.347V35.8955Z" fill="#C4C0C0"/>
<path d="M67.4476 36.0774C66.6535 36.0774 65.9231 35.8652 65.2562 35.4408C64.5955 35.0103 64.0772 34.4221 63.7014 33.6763C63.3255 32.9305 63.1376 32.1029 63.1376 31.1933V30.7841C63.1376 29.8745 63.3195 29.0408 63.6832 28.2829C64.0469 27.525 64.547 26.9338 65.1835 26.5093C65.82 26.0849 66.5141 25.8727 67.2658 25.8727C68.363 25.8727 69.2601 26.2638 69.9572 27.046C70.6544 27.8281 71.0029 28.8559 71.0029 30.1292V30.6476H63.6286V31.1842C63.6286 31.9846 63.7953 32.7274 64.1287 33.4126C64.4682 34.0917 64.9319 34.6252 65.5199 35.0133C66.114 35.4014 66.7566 35.5954 67.4476 35.5954C68.1084 35.5954 68.6691 35.4863 69.1298 35.268C69.5966 35.0436 70.0088 34.701 70.3664 34.2402L70.7119 34.4858C69.9785 35.5469 68.8903 36.0774 67.4476 36.0774ZM67.2658 26.3638C66.308 26.3638 65.4957 26.7216 64.8289 27.437C64.1621 28.1465 63.7711 29.0529 63.6559 30.1565H70.5119V30.0383C70.5119 29.3713 70.3695 28.7528 70.0845 28.1828C69.8057 27.6068 69.4177 27.1612 68.9207 26.8459C68.4296 26.5245 67.878 26.3638 67.2658 26.3638Z" fill="#C4C0C0"/>
<path d="M79.3592 33.4853C79.3592 32.2908 78.3408 31.4783 76.304 31.0478C75.0795 30.7871 74.2278 30.4536 73.749 30.0474C73.2701 29.635 73.0306 29.0711 73.0306 28.3557C73.0306 27.6341 73.3337 27.0399 73.9399 26.573C74.5522 26.1061 75.3463 25.8727 76.3222 25.8727C77.3831 25.8727 78.2348 26.1273 78.8773 26.6367C79.5199 27.1399 79.8412 27.8221 79.8412 28.6831H79.341C79.341 28.0222 79.0622 27.4704 78.5045 27.0278C77.9468 26.5851 77.2194 26.3638 76.3222 26.3638C75.4614 26.3638 74.7795 26.5518 74.2763 26.9277C73.7732 27.3036 73.5216 27.7736 73.5216 28.3375C73.5216 28.7801 73.6156 29.1287 73.8035 29.3834C73.9914 29.632 74.2976 29.8594 74.7219 30.0655C75.1462 30.2656 75.7645 30.4597 76.5768 30.6476C77.3891 30.8356 78.0317 31.0569 78.5045 31.3116C78.9773 31.5662 79.3198 31.8694 79.532 32.2211C79.7442 32.5667 79.8502 32.9911 79.8502 33.4944C79.8502 34.2705 79.532 34.8951 78.8955 35.368C78.259 35.841 77.4255 36.0774 76.395 36.0774C75.2917 36.0774 74.4006 35.8288 73.7217 35.3316C73.0488 34.8284 72.7124 34.1826 72.7124 33.3944H73.2034C73.2519 34.0856 73.555 34.6252 74.1127 35.0133C74.6764 35.3953 75.4372 35.5863 76.395 35.5863C77.2739 35.5863 77.9862 35.3832 78.5318 34.9769C79.0834 34.5646 79.3592 34.0674 79.3592 33.4853Z" fill="#C4C0C0"/>
<path d="M0 25.0299V0.194031H8.77753C11.8181 0.194031 14.1244 0.773988 15.6963 1.9339C17.2682 3.08245 18.0542 4.77114 18.0542 7C18.0542 8.21677 17.7386 9.2914 17.1076 10.2239C16.4765 11.145 15.5988 11.8216 14.4743 12.2537C15.7594 12.5721 16.7691 13.2146 17.5034 14.1812C18.2492 15.1478 18.6221 16.3305 18.6221 17.7292C18.6221 20.1173 17.8534 21.9254 16.3159 23.1535C14.7784 24.3817 12.5869 25.0071 9.74133 25.0299H0ZM5.16325 14.2154V20.919H9.58643C10.8027 20.919 11.7493 20.6347 12.4262 20.0661C13.1147 19.4861 13.4589 18.6901 13.4589 17.678C13.4589 15.4037 12.2713 14.2495 9.89623 14.2154H5.16325ZM5.16325 10.5991H8.98406C11.5886 10.5537 12.8909 9.52452 12.8909 7.51173C12.8909 6.38593 12.5582 5.57854 11.8927 5.08955C11.2387 4.5892 10.2003 4.33902 8.77753 4.33902H5.16325V10.5991Z" fill="url(#paint0_linear)"/>
<rect x="82.2477" y="23.4776" width="46.5553" height="15.5224" fill="#28D7F7"/>
<path d="M86.8184 35.8955V29.9291H85.7333V29.3349H86.8184V28.5406C86.8184 27.8696 86.9881 27.3542 87.3276 26.9944C87.6711 26.6347 88.148 26.4548 88.7582 26.4548C89.033 26.4548 89.2896 26.4891 89.528 26.5579L89.4735 27.1642C89.2714 27.1157 89.0512 27.0914 88.8127 27.0914C88.4127 27.0914 88.1015 27.2167 87.8792 27.4674C87.6569 27.7139 87.5458 28.0656 87.5458 28.5224V29.3349H89.1098V29.9291H87.5458V35.8955H86.8184Z" fill="white"/>
<path d="M90.0069 32.5182C90.0069 31.8876 90.1282 31.3197 90.3707 30.8144C90.6172 30.3091 90.9627 29.917 91.4072 29.6381C91.8558 29.3551 92.363 29.2136 92.9288 29.2136C93.8017 29.2136 94.5089 29.5208 95.0504 30.1353C95.592 30.7457 95.8627 31.5561 95.8627 32.5667V32.7183C95.8627 33.3529 95.7395 33.9249 95.4929 34.4343C95.2505 34.9395 94.907 35.3296 94.4624 35.6045C94.0179 35.8794 93.5107 36.0168 92.9409 36.0168C92.072 36.0168 91.3648 35.7116 90.8192 35.1012C90.2777 34.4868 90.0069 33.6743 90.0069 32.6637V32.5182ZM90.7344 32.7183C90.7344 33.5025 90.9364 34.1472 91.3406 34.6525C91.7487 35.1538 92.2822 35.4044 92.9409 35.4044C93.5956 35.4044 94.125 35.1538 94.5291 34.6525C94.9373 34.1472 95.1414 33.4823 95.1414 32.6577V32.5182C95.1414 32.017 95.0484 31.5582 94.8625 31.1418C94.6766 30.7255 94.416 30.4041 94.0805 30.1777C93.7451 29.9473 93.3612 29.8321 92.9288 29.8321C92.2822 29.8321 91.7548 30.0868 91.3466 30.5961C90.9384 31.1014 90.7344 31.7643 90.7344 32.5849V32.7183Z" fill="white"/>
<path d="M100.397 29.9534C100.243 29.9251 100.08 29.9109 99.906 29.9109C99.4534 29.9109 99.0695 30.0383 98.7542 30.2929C98.4431 30.5435 98.2208 30.9094 98.0874 31.3904V35.8955H97.3661V29.3349H98.0753L98.0874 30.3778C98.4714 29.6017 99.0876 29.2136 99.9363 29.2136C100.138 29.2136 100.298 29.2399 100.415 29.2925L100.397 29.9534Z" fill="white"/>
<path d="M105.089 35.8955V29.9291H104.004V29.3349H105.089V28.5406C105.089 27.8696 105.259 27.3542 105.598 26.9944C105.942 26.6347 106.418 26.4548 107.029 26.4548C107.304 26.4548 107.56 26.4891 107.799 26.5579L107.744 27.1642C107.542 27.1157 107.322 27.0914 107.083 27.0914C106.683 27.0914 106.372 27.2167 106.15 27.4674C105.927 27.7139 105.816 28.0656 105.816 28.5224V29.3349H107.38V29.9291H105.816V35.8955H105.089Z" fill="white"/>
<path d="M111.709 29.9534C111.555 29.9251 111.391 29.9109 111.217 29.9109C110.765 29.9109 110.381 30.0383 110.066 30.2929C109.755 30.5435 109.532 30.9094 109.399 31.3904V35.8955H108.678V29.3349H109.387L109.399 30.3778C109.783 29.6017 110.399 29.2136 111.248 29.2136C111.45 29.2136 111.609 29.2399 111.727 29.2925L111.709 29.9534Z" fill="white"/>
<path d="M115.279 36.0168C114.721 36.0168 114.216 35.8794 113.763 35.6045C113.315 35.3296 112.965 34.9476 112.715 34.4585C112.464 33.9653 112.339 33.4136 112.339 32.8032V32.5425C112.339 31.9119 112.46 31.3439 112.703 30.8386C112.949 30.3333 113.291 29.9372 113.727 29.6502C114.164 29.3592 114.636 29.2136 115.146 29.2136C115.942 29.2136 116.572 29.4865 117.037 30.0322C117.506 30.5739 117.74 31.3156 117.74 32.2575V32.6637H113.06V32.8032C113.06 33.547 113.272 34.1675 113.697 34.6647C114.125 35.1578 114.663 35.4044 115.309 35.4044C115.697 35.4044 116.039 35.3337 116.334 35.1922C116.633 35.0507 116.904 34.8243 117.146 34.5131L117.601 34.8587C117.067 35.6308 116.293 36.0168 115.279 36.0168ZM115.146 29.8321C114.6 29.8321 114.139 30.0322 113.763 30.4324C113.392 30.8326 113.165 31.3702 113.085 32.0453H117.019V31.9664C116.999 31.3358 116.819 30.8225 116.479 30.4263C116.14 30.0302 115.695 29.8321 115.146 29.8321Z" fill="white"/>
<path d="M121.692 36.0168C121.135 36.0168 120.63 35.8794 120.177 35.6045C119.728 35.3296 119.379 34.9476 119.128 34.4585C118.878 33.9653 118.752 33.4136 118.752 32.8032V32.5425C118.752 31.9119 118.874 31.3439 119.116 30.8386C119.363 30.3333 119.704 29.9372 120.141 29.6502C120.577 29.3592 121.05 29.2136 121.559 29.2136C122.355 29.2136 122.986 29.4865 123.45 30.0322C123.919 30.5739 124.154 31.3156 124.154 32.2575V32.6637H119.474V32.8032C119.474 33.547 119.686 34.1675 120.11 34.6647C120.539 35.1578 121.076 35.4044 121.723 35.4044C122.111 35.4044 122.452 35.3337 122.747 35.1922C123.046 35.0507 123.317 34.8243 123.559 34.5131L124.014 34.8587C123.481 35.6308 122.707 36.0168 121.692 36.0168ZM121.559 29.8321C121.014 29.8321 120.553 30.0322 120.177 30.4324C119.805 30.8326 119.579 31.3702 119.498 32.0453H123.432V31.9664C123.412 31.3358 123.232 30.8225 122.893 30.4263C122.553 30.0302 122.109 29.8321 121.559 29.8321Z" fill="white"/>
<defs>
<linearGradient id="paint0_linear" x1="9.31106" y1="0.194031" x2="9.31106" y2="25.0299" gradientUnits="userSpaceOnUse">
<stop stop-color="#A6FE9F"/>
<stop offset="1" stop-color="#20D4FC"/>
</linearGradient>
</defs>
</svg>
